<?xml version="1.0" encoding="UTF-8"?><svg xmlns="http://www.w3.org/2000/svg" xmlns:xlink="http://www.w3.org/1999/xlink" fill-opacity="1" color-rendering="auto" color-interpolation="auto" text-rendering="auto" stroke="black" stroke-linecap="square" width="745" stroke-miterlimit="10" shape-rendering="auto" stroke-opacity="1" fill="black" stroke-dasharray="none" font-weight="normal" stroke-width="1" height="344" font-family="'Dialog'" font-style="normal" stroke-linejoin="miter" font-size="12" stroke-dashoffset="0" image-rendering="auto">
  <!--Generated by ySVG 2.5-->
  <defs id="genericDefs"/>
  <g>
    <defs id="defs1">
      <clipPath clipPathUnits="userSpaceOnUse" id="clipPath1">
        <path d="M0 0 L745 0 L745 344 L0 344 L0 0 Z"/>
      </clipPath>
      <clipPath clipPathUnits="userSpaceOnUse" id="clipPath2">
        <path d="M170 48 L915 48 L915 392 L170 392 L170 48 Z"/>
      </clipPath>
    </defs>
    <g fill="rgb(255,204,0)" text-rendering="geometricPrecision" shape-rendering="geometricPrecision" transform="matrix(1,0,0,1,-170,-48)" stroke="rgb(255,204,0)">
      <rect x="185" width="198" height="292" y="85" clip-path="url(#clipPath2)" stroke="none"/>
    </g>
    <g text-rendering="geometricPrecision" stroke-miterlimit="1.45" shape-rendering="geometricPrecision" font-family="sans-serif" transform="matrix(1,0,0,1,-170,-48)" stroke-linecap="butt">
      <text x="201.002" xml:space="preserve" y="151.3418" clip-path="url(#clipPath2)" stroke="none">- Génération du premier sel</text>
      <text x="197.3281" xml:space="preserve" y="165.3105" clip-path="url(#clipPath2)" stroke="none">- Génération du hash du mot</text>
      <text x="194.6357" xml:space="preserve" y="179.2793" clip-path="url(#clipPath2)" stroke="none">  de passe à l'aide du premier</text>
      <text x="271.7012" xml:space="preserve" y="193.248" clip-path="url(#clipPath2)" stroke="none">  sel</text>
      <text x="204.957" xml:space="preserve" y="207.2168" clip-path="url(#clipPath2)" stroke="none">- Génération de la pair de </text>
      <text x="257.5391" xml:space="preserve" y="221.1855" clip-path="url(#clipPath2)" stroke="none">  clé RSA</text>
      <text x="203.2402" xml:space="preserve" y="235.1543" clip-path="url(#clipPath2)" stroke="none">- Génération du second sel</text>
      <text x="206.2725" xml:space="preserve" y="249.123" clip-path="url(#clipPath2)" stroke="none">- Génération d'un second </text>
      <text x="208.1562" xml:space="preserve" y="263.0918" clip-path="url(#clipPath2)" stroke="none">  hash du mot de passe à</text>
      <text x="218.9023" xml:space="preserve" y="277.0605" clip-path="url(#clipPath2)" stroke="none">  l'aide du second sel.</text>
      <text x="196.1885" xml:space="preserve" y="291.0293" clip-path="url(#clipPath2)" stroke="none">- Chiffrement de la clé privée</text>
      <text x="199.7832" xml:space="preserve" y="304.998" clip-path="url(#clipPath2)" stroke="none">  en utilisant le second hash</text>
      <text x="247.2705" xml:space="preserve" y="318.9668" clip-path="url(#clipPath2)" stroke="none">  comme clé</text>
      <text x="266.6299" xml:space="preserve" y="76.1699" clip-path="url(#clipPath2)" stroke="none">Client</text>
      <rect fill="none" x="185" width="198" height="292" y="85" clip-path="url(#clipPath2)"/>
    </g>
    <g fill="rgb(255,204,0)" text-rendering="geometricPrecision" shape-rendering="geometricPrecision" transform="matrix(1,0,0,1,-170,-48)" stroke="rgb(255,204,0)">
      <rect x="702" width="198" height="292" y="85" clip-path="url(#clipPath2)" stroke="none"/>
    </g>
    <g text-rendering="geometricPrecision" stroke-miterlimit="1.45" shape-rendering="geometricPrecision" font-family="sans-serif" transform="matrix(1,0,0,1,-170,-48)" stroke-linecap="butt">
      <text x="734.6396" xml:space="preserve" y="355.1543" clip-path="url(#clipPath2)" stroke="none">Enregistre l'utilisateur</text>
      <text x="777.5215" xml:space="preserve" y="76.1699" clip-path="url(#clipPath2)" stroke="none">Serveur</text>
      <rect fill="none" x="702" width="198" height="292" y="85" clip-path="url(#clipPath2)"/>
      <path fill="none" d="M383.0168 100.2348 L694.0193 100.2348" clip-path="url(#clipPath2)"/>
      <path d="M702.0193 100.2348 L690.0193 95.2348 L693.0193 100.2348 L690.0193 105.2348 Z" clip-path="url(#clipPath2)" stroke="none"/>
      <path fill="none" d="M383.0234 338 L694.0233 338" clip-path="url(#clipPath2)"/>
      <path d="M702.0233 338 L690.0233 333 L693.0233 338 L690.0233 343 Z" clip-path="url(#clipPath2)" stroke="none"/>
      <text x="400.8135" xml:space="preserve" y="328.1855" clip-path="url(#clipPath2)" stroke="none">Envoi du nom d'utilisateur, du premier hash, </text>
      <text x="534.8701" xml:space="preserve" y="342.1543" clip-path="url(#clipPath2)" stroke="none"> </text>
      <text x="390" xml:space="preserve" y="356.123" clip-path="url(#clipPath2)" stroke="none">du premier sel, du second sel et de la pair de clé</text>
      <path fill="none" d="M702.0204 127 L390.993 127" clip-path="url(#clipPath2)"/>
      <path d="M382.993 127 L394.993 132 L391.993 127 L394.993 122 Z" clip-path="url(#clipPath2)" stroke="none"/>
      <text x="497.4277" xml:space="preserve" y="120.1543" clip-path="url(#clipPath2)" stroke="none">Connexion TLS</text>
    </g>
  </g>
</svg>
