<?xml version="1.0" encoding="UTF-8"?><svg xmlns="http://www.w3.org/2000/svg" xmlns:xlink="http://www.w3.org/1999/xlink" fill-opacity="1" color-rendering="auto" color-interpolation="auto" text-rendering="auto" stroke="black" stroke-linecap="square" width="724" stroke-miterlimit="10" shape-rendering="auto" stroke-opacity="1" fill="black" stroke-dasharray="none" font-weight="normal" stroke-width="1" height="375" font-family="'Dialog'" font-style="normal" stroke-linejoin="miter" font-size="12" stroke-dashoffset="0" image-rendering="auto">
  <!--Generated by ySVG 2.5-->
  <defs id="genericDefs"/>
  <g>
    <defs id="defs1">
      <clipPath clipPathUnits="userSpaceOnUse" id="clipPath1">
        <path d="M0 0 L724 0 L724 375 L0 375 L0 0 Z"/>
      </clipPath>
      <clipPath clipPathUnits="userSpaceOnUse" id="clipPath2">
        <path d="M223 71 L947 71 L947 446 L223 446 L223 71 Z"/>
      </clipPath>
    </defs>
    <g fill="rgb(255,204,0)" text-rendering="geometricPrecision" shape-rendering="geometricPrecision" transform="matrix(1,0,0,1,-223,-71)" stroke="rgb(255,204,0)">
      <rect x="238" width="116" height="323" y="108" clip-path="url(#clipPath2)" stroke="none"/>
    </g>
    <g text-rendering="geometricPrecision" stroke-miterlimit="1.45" shape-rendering="geometricPrecision" font-family="sans-serif" transform="matrix(1,0,0,1,-223,-71)" stroke-linecap="butt">
      <text x="247.1621" xml:space="preserve" y="99.1699" clip-path="url(#clipPath2)" stroke="none">Client Partageur</text>
      <text x="248.7354" xml:space="preserve" y="226.6548" clip-path="url(#clipPath2)" stroke="none">Chiffre la clé de</text>
      <text x="241.8623" xml:space="preserve" y="240.6235" clip-path="url(#clipPath2)" stroke="none">la salle à l'aide de</text>
      <text x="242.6094" xml:space="preserve" y="254.5923" clip-path="url(#clipPath2)" stroke="none">la clé publique du</text>
      <text x="261.4062" xml:space="preserve" y="268.561" clip-path="url(#clipPath2)" stroke="none">demandeur</text>
      <rect fill="none" x="238" width="116" height="323" y="108" clip-path="url(#clipPath2)"/>
    </g>
    <g fill="rgb(255,204,0)" text-rendering="geometricPrecision" shape-rendering="geometricPrecision" transform="matrix(1,0,0,1,-223,-71)" stroke="rgb(255,204,0)">
      <rect x="526" width="116" height="323" y="108" clip-path="url(#clipPath2)" stroke="none"/>
    </g>
    <g text-rendering="geometricPrecision" stroke-miterlimit="1.45" shape-rendering="geometricPrecision" font-family="sans-serif" transform="matrix(1,0,0,1,-223,-71)" stroke-linecap="butt">
      <text x="560.5215" xml:space="preserve" y="99.1699" clip-path="url(#clipPath2)" stroke="none">Serveur</text>
      <text x="527.6592" xml:space="preserve" y="313.823" clip-path="url(#clipPath2)" stroke="none">Stocke la clé dans </text>
      <text x="533.6855" xml:space="preserve" y="327.7917" clip-path="url(#clipPath2)" stroke="none"> le trousseau du </text>
      <text x="549.4062" xml:space="preserve" y="341.7605" clip-path="url(#clipPath2)" stroke="none">demandeur</text>
      <rect fill="none" x="526" width="116" height="323" y="108" clip-path="url(#clipPath2)"/>
    </g>
    <g fill="rgb(255,204,0)" text-rendering="geometricPrecision" shape-rendering="geometricPrecision" transform="matrix(1,0,0,1,-223,-71)" stroke="rgb(255,204,0)">
      <rect x="814" width="116" height="323" y="108" clip-path="url(#clipPath2)" stroke="none"/>
    </g>
    <g text-rendering="geometricPrecision" stroke-miterlimit="1.45" shape-rendering="geometricPrecision" font-family="sans-serif" transform="matrix(1,0,0,1,-223,-71)" stroke-linecap="butt">
      <text x="820" xml:space="preserve" y="99.1699" clip-path="url(#clipPath2)" stroke="none">Client Demandeur</text>
      <text x="826.7217" xml:space="preserve" y="372.2012" clip-path="url(#clipPath2)" stroke="none">Déchiffre la clé</text>
      <text x="834.0225" xml:space="preserve" y="386.1699" clip-path="url(#clipPath2)" stroke="none">de la salle à </text>
      <text x="835.8154" xml:space="preserve" y="400.1387" clip-path="url(#clipPath2)" stroke="none">l'aide de sa </text>
      <text x="840.6523" xml:space="preserve" y="414.1074" clip-path="url(#clipPath2)" stroke="none">clé privée </text>
      <rect fill="none" x="814" width="116" height="323" y="108" clip-path="url(#clipPath2)"/>
      <path fill="none" d="M354.0078 283.3746 L517.9998 283.3746" clip-path="url(#clipPath2)"/>
      <path d="M525.9998 283.3746 L513.9998 278.3746 L516.9998 283.3746 L513.9998 288.3746 Z" clip-path="url(#clipPath2)" stroke="none"/>
      <text x="402.2158" xml:space="preserve" y="266.5757" clip-path="url(#clipPath2)" stroke="none">Transmet la </text>
      <text x="438.0928" xml:space="preserve" y="280.5445" clip-path="url(#clipPath2)" stroke="none"> </text>
      <text x="438.0928" xml:space="preserve" y="294.5132" clip-path="url(#clipPath2)" stroke="none"> </text>
      <text x="406.5928" xml:space="preserve" y="308.482" clip-path="url(#clipPath2)" stroke="none">clé chiffrée</text>
      <path fill="none" d="M525.9734 199.0172 L362.0188 199.0172" clip-path="url(#clipPath2)"/>
      <path d="M354.0188 199.0172 L366.0188 204.0172 L363.0188 199.0172 L366.0188 194.0172 Z" clip-path="url(#clipPath2)" stroke="none"/>
      <text x="379.4482" xml:space="preserve" y="188.2184" clip-path="url(#clipPath2)" stroke="none">Transmet la demande </text>
      <text x="445.5565" xml:space="preserve" y="202.1871" clip-path="url(#clipPath2)" stroke="none"> </text>
      <text x="386.0575" xml:space="preserve" y="216.1559" clip-path="url(#clipPath2)" stroke="none">à un administrateur </text>
      <text x="419.8544" xml:space="preserve" y="230.1246" clip-path="url(#clipPath2)" stroke="none">connecté</text>
      <path fill="none" d="M642.0117 371.0619 L806.0165 371.0619" clip-path="url(#clipPath2)"/>
      <path d="M814.0165 371.0619 L802.0165 366.0619 L805.0165 371.0619 L802.0165 376.0619 Z" clip-path="url(#clipPath2)" stroke="none"/>
      <text x="690.2158" xml:space="preserve" y="361.2474" clip-path="url(#clipPath2)" stroke="none">Transmet la </text>
      <text x="726.0928" xml:space="preserve" y="375.2162" clip-path="url(#clipPath2)" stroke="none"> </text>
      <text x="694.5928" xml:space="preserve" y="389.1849" clip-path="url(#clipPath2)" stroke="none">clé chiffrée</text>
      <path fill="none" d="M814.0266 140.189 L650.0236 140.189" clip-path="url(#clipPath2)"/>
      <path d="M642.0236 140.189 L654.0236 145.189 L651.0236 140.189 L654.0236 135.189 Z" clip-path="url(#clipPath2)" stroke="none"/>
      <text x="681.0488" xml:space="preserve" y="130.3746" clip-path="url(#clipPath2)" stroke="none">Demande la clé</text>
      <text x="726.0928" xml:space="preserve" y="144.3433" clip-path="url(#clipPath2)" stroke="none"> </text>
      <text x="674.7266" xml:space="preserve" y="158.3121" clip-path="url(#clipPath2)" stroke="none">d'une salle privée</text>
    </g>
  </g>
</svg>
