<?xml version="1.0" encoding="UTF-8"?><svg xmlns="http://www.w3.org/2000/svg" xmlns:xlink="http://www.w3.org/1999/xlink" fill-opacity="1" color-rendering="auto" color-interpolation="auto" text-rendering="auto" stroke="black" stroke-linecap="square" width="734" stroke-miterlimit="10" shape-rendering="auto" stroke-opacity="1" fill="black" stroke-dasharray="none" font-weight="normal" stroke-width="1" height="375" font-family="'Dialog'" font-style="normal" stroke-linejoin="miter" font-size="12" stroke-dashoffset="0" image-rendering="auto">
  <!--Generated by ySVG 2.5-->
  <defs id="genericDefs"/>
  <g>
    <defs id="defs1">
      <clipPath clipPathUnits="userSpaceOnUse" id="clipPath1">
        <path d="M0 0 L734 0 L734 375 L0 375 L0 0 Z"/>
      </clipPath>
      <clipPath clipPathUnits="userSpaceOnUse" id="clipPath2">
        <path d="M248 118 L982 118 L982 493 L248 493 L248 118 Z"/>
      </clipPath>
    </defs>
    <g fill="rgb(255,204,0)" text-rendering="geometricPrecision" shape-rendering="geometricPrecision" transform="matrix(1,0,0,1,-248,-118)" stroke="rgb(255,204,0)">
      <rect x="263" width="123" height="323" y="155" clip-path="url(#clipPath2)" stroke="none"/>
    </g>
    <g text-rendering="geometricPrecision" stroke-miterlimit="1.45" shape-rendering="geometricPrecision" font-family="sans-serif" transform="matrix(1,0,0,1,-248,-118)" stroke-linecap="butt">
      <text x="307.1299" xml:space="preserve" y="146.1699" clip-path="url(#clipPath2)" stroke="none">Client</text>
      <text x="270.5293" xml:space="preserve" y="178.1855" clip-path="url(#clipPath2)" stroke="none">Chiffre le message</text>
      <text x="271.1416" xml:space="preserve" y="192.1543" clip-path="url(#clipPath2)" stroke="none">à envoyer à l'aide </text>
      <text x="269" xml:space="preserve" y="206.123" clip-path="url(#clipPath2)" stroke="none">de la clé de la salle</text>
      <text x="287.8643" xml:space="preserve" y="308.2012" clip-path="url(#clipPath2)" stroke="none">Déchiffre le </text>
      <text x="280.4609" xml:space="preserve" y="322.1699" clip-path="url(#clipPath2)" stroke="none">message reçu </text>
      <text x="284.1904" xml:space="preserve" y="336.1387" clip-path="url(#clipPath2)" stroke="none">à l'aide de la </text>
      <text x="283.4492" xml:space="preserve" y="350.1074" clip-path="url(#clipPath2)" stroke="none">clé de la salle</text>
      <text x="269.1494" xml:space="preserve" y="395.2168" clip-path="url(#clipPath2)" stroke="none">Stocke le message</text>
      <text x="279.623" xml:space="preserve" y="409.1855" clip-path="url(#clipPath2)" stroke="none">dans le modèle</text>
      <text x="323.6768" xml:space="preserve" y="423.1543" clip-path="url(#clipPath2)" stroke="none"> </text>
      <text x="266.75" xml:space="preserve" y="437.123" clip-path="url(#clipPath2)" stroke="none">Affiche le message </text>
      <text x="290.9668" xml:space="preserve" y="451.0918" clip-path="url(#clipPath2)" stroke="none">dans la vue</text>
      <rect fill="none" x="263" width="123" height="323" y="155" clip-path="url(#clipPath2)"/>
    </g>
    <g fill="rgb(255,204,0)" text-rendering="geometricPrecision" shape-rendering="geometricPrecision" transform="matrix(1,0,0,1,-248,-118)" stroke="rgb(255,204,0)">
      <rect x="553" width="123" height="323" y="155" clip-path="url(#clipPath2)" stroke="none"/>
    </g>
    <g text-rendering="geometricPrecision" stroke-miterlimit="1.45" shape-rendering="geometricPrecision" font-family="sans-serif" transform="matrix(1,0,0,1,-248,-118)" stroke-linecap="butt">
      <text x="591.0215" xml:space="preserve" y="146.1699" clip-path="url(#clipPath2)" stroke="none">Serveur</text>
      <text x="557.1309" xml:space="preserve" y="252.1699" clip-path="url(#clipPath2)" stroke="none">Stocke le message</text>
      <text x="576.6367" xml:space="preserve" y="266.1387" clip-path="url(#clipPath2)" stroke="none">dans la BDD</text>
      <rect fill="none" x="553" width="123" height="323" y="155" clip-path="url(#clipPath2)"/>
    </g>
    <g fill="rgb(255,204,0)" text-rendering="geometricPrecision" shape-rendering="geometricPrecision" transform="matrix(1,0,0,1,-248,-118)" stroke="rgb(255,204,0)">
      <rect x="843" width="123" height="323" y="155" clip-path="url(#clipPath2)" stroke="none"/>
    </g>
    <g text-rendering="geometricPrecision" stroke-miterlimit="1.45" shape-rendering="geometricPrecision" font-family="sans-serif" transform="matrix(1,0,0,1,-248,-118)" stroke-linecap="butt">
      <text x="888.2988" xml:space="preserve" y="146.1699" clip-path="url(#clipPath2)" stroke="none">Client</text>
      <text x="869.0331" xml:space="preserve" y="307.2012" clip-path="url(#clipPath2)" stroke="none">Déchiffre le </text>
      <text x="861.6298" xml:space="preserve" y="321.1699" clip-path="url(#clipPath2)" stroke="none">message reçu </text>
      <text x="865.3593" xml:space="preserve" y="335.1387" clip-path="url(#clipPath2)" stroke="none">à l'aide de la </text>
      <text x="864.6181" xml:space="preserve" y="349.1074" clip-path="url(#clipPath2)" stroke="none">clé de la salle</text>
      <text x="849.2343" xml:space="preserve" y="384.2168" clip-path="url(#clipPath2)" stroke="none">Stocke le message</text>
      <text x="859.7079" xml:space="preserve" y="398.1855" clip-path="url(#clipPath2)" stroke="none">dans le modèle</text>
      <text x="903.7617" xml:space="preserve" y="412.1543" clip-path="url(#clipPath2)" stroke="none"> </text>
      <text x="846.8349" xml:space="preserve" y="426.123" clip-path="url(#clipPath2)" stroke="none">Affiche le message </text>
      <text x="871.0517" xml:space="preserve" y="440.0918" clip-path="url(#clipPath2)" stroke="none">dans la vue</text>
      <rect fill="none" x="843" width="123" height="323" y="155" clip-path="url(#clipPath2)"/>
      <path fill="none" d="M385.9828 225 L544.992 225" clip-path="url(#clipPath2)"/>
      <path d="M552.992 225 L540.992 220 L543.992 225 L540.992 230 Z" clip-path="url(#clipPath2)" stroke="none"/>
      <text x="394.3213" xml:space="preserve" y="210.1543" clip-path="url(#clipPath2)" stroke="none">Envoi le message chiffré</text>
      <path fill="none" d="M552.9707 281 L393.9788 281" clip-path="url(#clipPath2)"/>
      <path d="M385.9788 281 L397.9788 286 L394.9788 281 L397.9788 276 Z" clip-path="url(#clipPath2)" stroke="none"/>
      <text x="431.7012" xml:space="preserve" y="271.1855" clip-path="url(#clipPath2)" stroke="none">Transmet le </text>
      <text x="467.5928" xml:space="preserve" y="285.1543" clip-path="url(#clipPath2)" stroke="none"> </text>
      <text x="421.4766" xml:space="preserve" y="299.123" clip-path="url(#clipPath2)" stroke="none">message chiffré</text>
      <path fill="none" d="M676.0214 287 L834.9937 287" clip-path="url(#clipPath2)"/>
      <path d="M842.9937 287 L830.9937 282 L833.9937 287 L830.9937 292 Z" clip-path="url(#clipPath2)" stroke="none"/>
      <text x="721.7012" xml:space="preserve" y="277.1855" clip-path="url(#clipPath2)" stroke="none">Transmet le </text>
      <text x="757.5928" xml:space="preserve" y="291.1543" clip-path="url(#clipPath2)" stroke="none"> </text>
      <text x="709.5693" xml:space="preserve" y="305.123" clip-path="url(#clipPath2)" stroke="none"> message chiffré</text>
    </g>
  </g>
</svg>
