<?xml version="1.0" encoding="UTF-8"?><svg xmlns="http://www.w3.org/2000/svg" xmlns:xlink="http://www.w3.org/1999/xlink" fill-opacity="1" color-rendering="auto" color-interpolation="auto" text-rendering="auto" stroke="black" stroke-linecap="square" width="603" stroke-miterlimit="10" shape-rendering="auto" stroke-opacity="1" fill="black" stroke-dasharray="none" font-weight="normal" stroke-width="1" height="500" font-family="'Dialog'" font-style="normal" stroke-linejoin="miter" font-size="12" stroke-dashoffset="0" image-rendering="auto">
  <!--Generated by ySVG 2.5-->
  <defs id="genericDefs"/>
  <g>
    <defs id="defs1">
      <clipPath clipPathUnits="userSpaceOnUse" id="clipPath1">
        <path d="M0 0 L603 0 L603 500 L0 500 L0 0 Z"/>
      </clipPath>
      <clipPath clipPathUnits="userSpaceOnUse" id="clipPath2">
        <path d="M98 68 L701 68 L701 568 L98 568 L98 68 Z"/>
      </clipPath>
    </defs>
    <g fill="rgb(255,204,0)" text-rendering="geometricPrecision" shape-rendering="geometricPrecision" transform="matrix(1,0,0,1,-98,-68)" stroke="rgb(255,204,0)">
      <rect x="113" width="135" height="448" y="105" clip-path="url(#clipPath2)" stroke="none"/>
    </g>
    <g text-rendering="geometricPrecision" stroke-miterlimit="1.45" shape-rendering="geometricPrecision" font-family="sans-serif" transform="matrix(1,0,0,1,-98,-68)" stroke-linecap="butt">
      <text x="134.9258" xml:space="preserve" y="284.9855" clip-path="url(#clipPath2)" stroke="none">Génère le hash</text>
      <text x="130.3701" xml:space="preserve" y="298.9543" clip-path="url(#clipPath2)" stroke="none">du mot de passe</text>
      <text x="138.8457" xml:space="preserve" y="312.923" clip-path="url(#clipPath2)" stroke="none">à l'aide du sel</text>
      <text x="130.4932" xml:space="preserve" y="404.0324" clip-path="url(#clipPath2)" stroke="none">- Génère le hash</text>
      <text x="126.1953" xml:space="preserve" y="418.0012" clip-path="url(#clipPath2)" stroke="none">  du mot de passe</text>
      <text x="121.1445" xml:space="preserve" y="431.9699" clip-path="url(#clipPath2)" stroke="none">  avec le second sel</text>
      <text x="118.2793" xml:space="preserve" y="445.9387" clip-path="url(#clipPath2)" stroke="none">- L'utilise comme clé</text>
      <text x="125.3076" xml:space="preserve" y="459.9074" clip-path="url(#clipPath2)" stroke="none">  pour déchiffre sa</text>
      <text x="132.8955" xml:space="preserve" y="473.8762" clip-path="url(#clipPath2)" stroke="none">  clé RSA privée</text>
      <text x="162.7695" xml:space="preserve" y="96.1699" clip-path="url(#clipPath2)" stroke="none">Client</text>
      <rect fill="none" x="113" width="135" height="448" y="105" clip-path="url(#clipPath2)"/>
    </g>
    <g fill="rgb(255,204,0)" text-rendering="geometricPrecision" shape-rendering="geometricPrecision" transform="matrix(1,0,0,1,-98,-68)" stroke="rgb(255,204,0)">
      <rect x="551" width="135" height="448" y="105" clip-path="url(#clipPath2)" stroke="none"/>
    </g>
    <g text-rendering="geometricPrecision" stroke-miterlimit="1.45" shape-rendering="geometricPrecision" font-family="sans-serif" transform="matrix(1,0,0,1,-98,-68)" stroke-linecap="butt">
      <text x="568.1533" xml:space="preserve" y="339.3856" clip-path="url(#clipPath2)" stroke="none">Compare le hash</text>
      <text x="571.7568" xml:space="preserve" y="353.3543" clip-path="url(#clipPath2)" stroke="none">reçu avec celui </text>
      <text x="558.166" xml:space="preserve" y="367.3231" clip-path="url(#clipPath2)" stroke="none">stocker dans la BDD</text>
      <text x="582.6143" xml:space="preserve" y="235.1699" clip-path="url(#clipPath2)" stroke="none">Récupère le</text>
      <text x="565.1123" xml:space="preserve" y="249.1387" clip-path="url(#clipPath2)" stroke="none">sel de l'utilisateur</text>
      <text x="594.4385" xml:space="preserve" y="101.3543" clip-path="url(#clipPath2)" stroke="none">Serveur</text>
      <rect fill="none" x="551" width="135" height="448" y="105" clip-path="url(#clipPath2)"/>
      <path fill="none" d="M248.0157 125.8 L543.026 125.8" clip-path="url(#clipPath2)"/>
      <path d="M551.026 125.8 L539.026 120.8 L542.026 125.8 L539.026 130.8 Z" clip-path="url(#clipPath2)" stroke="none"/>
      <path fill="none" d="M248.0239 207.8 L542.9915 207.8" clip-path="url(#clipPath2)"/>
      <path d="M550.9915 207.8 L538.9915 202.8 L541.9915 207.8 L538.9915 212.8 Z" clip-path="url(#clipPath2)" stroke="none"/>
      <text x="351.5582" xml:space="preserve" y="197.9855" clip-path="url(#clipPath2)" stroke="none">Demande de sel </text>
      <text x="400.4928" xml:space="preserve" y="211.9543" clip-path="url(#clipPath2)" stroke="none"> </text>
      <text x="313.7916" xml:space="preserve" y="225.923" clip-path="url(#clipPath2)" stroke="none">Fournit le nom de l'utilisateur</text>
      <path fill="none" d="M248.0139 317.8 L542.9701 317.8" clip-path="url(#clipPath2)"/>
      <path d="M550.9701 317.8 L538.9701 312.8 L541.9701 317.8 L538.9701 322.8 Z" clip-path="url(#clipPath2)" stroke="none"/>
      <text x="361.9836" xml:space="preserve" y="311.7543" clip-path="url(#clipPath2)" stroke="none">Envoi du hash</text>
      <path fill="none" d="M550.9657 159.8 L256.0008 159.8" clip-path="url(#clipPath2)"/>
      <path d="M248.0008 159.8 L260.0008 164.8 L257.0008 159.8 L260.0008 154.8 Z" clip-path="url(#clipPath2)" stroke="none"/>
      <text x="359.8277" xml:space="preserve" y="148.9543" clip-path="url(#clipPath2)" stroke="none">Connexion TLS</text>
      <path fill="none" d="M551.0034 271.8 L255.9863 271.8" clip-path="url(#clipPath2)"/>
      <path d="M247.9863 271.8 L259.9863 276.8 L256.9863 271.8 L259.9863 266.8 Z" clip-path="url(#clipPath2)" stroke="none"/>
      <text x="360.5289" xml:space="preserve" y="262.9543" clip-path="url(#clipPath2)" stroke="none">Fournit le sel</text>
      <path fill="none" d="M551.0046 380.8 L256.0325 380.8" clip-path="url(#clipPath2)"/>
      <path d="M248.0325 380.8 L260.0325 385.8 L257.0325 380.8 L260.0325 375.8 Z" clip-path="url(#clipPath2)" stroke="none"/>
      <text x="318.8721" xml:space="preserve" y="370.9855" clip-path="url(#clipPath2)" stroke="none">Envoi de la pair de clé RSA</text>
      <text x="397.5928" xml:space="preserve" y="384.9543" clip-path="url(#clipPath2)" stroke="none"> </text>
      <text x="350.2402" xml:space="preserve" y="398.923" clip-path="url(#clipPath2)" stroke="none">et du second sel</text>
      <path fill="none" d="M551.0006 492.4 L256.018 492.4" clip-path="url(#clipPath2)"/>
      <path d="M248.018 492.4 L260.018 497.4 L257.018 492.4 L260.018 487.4 Z" clip-path="url(#clipPath2)" stroke="none"/>
      <text x="316.9854" xml:space="preserve" y="482.5855" clip-path="url(#clipPath2)" stroke="none">Envoi des infos utilisateurs,</text>
      <text x="397.5928" xml:space="preserve" y="496.5543" clip-path="url(#clipPath2)" stroke="none"> </text>
      <text x="315.623" xml:space="preserve" y="510.523" clip-path="url(#clipPath2)" stroke="none">des salles et des messages.</text>
    </g>
  </g>
</svg>
