<?xml version="1.0" encoding="UTF-8"?><svg xmlns="http://www.w3.org/2000/svg" xmlns:xlink="http://www.w3.org/1999/xlink" fill-opacity="1" color-rendering="auto" color-interpolation="auto" text-rendering="auto" stroke="black" stroke-linecap="square" width="870" stroke-miterlimit="10" shape-rendering="auto" stroke-opacity="1" fill="black" stroke-dasharray="none" font-weight="normal" stroke-width="1" height="795" font-family="'Dialog'" font-style="normal" stroke-linejoin="miter" font-size="12" stroke-dashoffset="0" image-rendering="auto">
  <!--Generated by ySVG 2.5-->
  <defs id="genericDefs"/>
  <g>
    <g fill="white" text-rendering="geometricPrecision" shape-rendering="geometricPrecision" transform="translate(-141,-92)" stroke="white">
      <rect x="141" width="870" height="795" y="92" clip-path="url(#clipPath2)" stroke="none"/>
    </g>
    <g fill="rgb(255,204,0)" text-rendering="geometricPrecision" shape-rendering="geometricPrecision" transform="matrix(1,0,0,1,-141,-92)" stroke="rgb(255,204,0)">
      <rect x="503.84" y="107.25" clip-path="url(#clipPath2)" width="120" rx="4" ry="4" height="43" stroke="none"/>
    </g>
    <g text-rendering="geometricPrecision" stroke-miterlimit="1.45" shape-rendering="geometricPrecision" font-family="sans-serif" transform="matrix(1,0,0,1,-141,-92)" stroke-linecap="butt">
      <text x="530.3156" xml:space="preserve" y="125.9199" clip-path="url(#clipPath2)" stroke="none">Application</text>
      <text x="546.4699" xml:space="preserve" y="139.8887" clip-path="url(#clipPath2)" stroke="none">Client</text>
      <rect x="503.84" y="107.25" clip-path="url(#clipPath2)" fill="none" width="120" rx="4" ry="4" height="43"/>
    </g>
    <g fill="rgb(255,204,0)" text-rendering="geometricPrecision" shape-rendering="geometricPrecision" transform="matrix(1,0,0,1,-141,-92)" stroke="rgb(255,204,0)">
      <rect x="636" y="211.5" clip-path="url(#clipPath2)" width="120" rx="4" ry="4" height="43" stroke="none"/>
    </g>
    <g text-rendering="geometricPrecision" stroke-miterlimit="1.45" shape-rendering="geometricPrecision" font-family="sans-serif" transform="matrix(1,0,0,1,-141,-92)" stroke-linecap="butt">
      <text x="662.3115" xml:space="preserve" y="230.1699" clip-path="url(#clipPath2)" stroke="none">Controleur </text>
      <text x="675.1582" xml:space="preserve" y="244.1387" clip-path="url(#clipPath2)" stroke="none">Output</text>
      <rect x="636" y="211.5" clip-path="url(#clipPath2)" fill="none" width="120" rx="4" ry="4" height="43"/>
    </g>
    <g fill="rgb(255,204,0)" text-rendering="geometricPrecision" shape-rendering="geometricPrecision" transform="matrix(1,0,0,1,-141,-92)" stroke="rgb(255,204,0)">
      <rect x="876" y="211.5" clip-path="url(#clipPath2)" width="120" rx="4" ry="4" height="43" stroke="none"/>
    </g>
    <g text-rendering="geometricPrecision" stroke-miterlimit="1.45" shape-rendering="geometricPrecision" font-family="sans-serif" transform="matrix(1,0,0,1,-141,-92)" stroke-linecap="butt">
      <text x="899.6367" xml:space="preserve" y="237.1543" clip-path="url(#clipPath2)" stroke="none">Interpréteur</text>
      <rect x="876" y="211.5" clip-path="url(#clipPath2)" fill="none" width="120" rx="4" ry="4" height="43"/>
    </g>
    <g fill="rgb(255,204,0)" text-rendering="geometricPrecision" shape-rendering="geometricPrecision" transform="matrix(1,0,0,1,-141,-92)" stroke="rgb(255,204,0)">
      <rect x="396" y="211.5" clip-path="url(#clipPath2)" width="120" rx="4" ry="4" height="43" stroke="none"/>
    </g>
    <g text-rendering="geometricPrecision" stroke-miterlimit="1.45" shape-rendering="geometricPrecision" font-family="sans-serif" transform="matrix(1,0,0,1,-141,-92)" stroke-linecap="butt">
      <text x="422.3115" xml:space="preserve" y="230.1699" clip-path="url(#clipPath2)" stroke="none">Controleur </text>
      <text x="440.4639" xml:space="preserve" y="244.1387" clip-path="url(#clipPath2)" stroke="none">Input</text>
      <rect x="396" y="211.5" clip-path="url(#clipPath2)" fill="none" width="120" rx="4" ry="4" height="43"/>
    </g>
    <g fill="rgb(255,204,0)" text-rendering="geometricPrecision" shape-rendering="geometricPrecision" transform="matrix(1,0,0,1,-141,-92)" stroke="rgb(255,204,0)">
      <rect x="156" y="208" clip-path="url(#clipPath2)" width="120" rx="4" ry="4" height="43" stroke="none"/>
    </g>
    <g text-rendering="geometricPrecision" stroke-miterlimit="1.45" shape-rendering="geometricPrecision" font-family="sans-serif" transform="matrix(1,0,0,1,-141,-92)" stroke-linecap="butt">
      <text x="196.4561" xml:space="preserve" y="226.6699" clip-path="url(#clipPath2)" stroke="none">Autres</text>
      <text x="179.4258" xml:space="preserve" y="240.6387" clip-path="url(#clipPath2)" stroke="none">Controlleurs</text>
      <rect x="156" y="208" clip-path="url(#clipPath2)" fill="none" width="120" rx="4" ry="4" height="43"/>
    </g>
    <g fill="rgb(255,204,0)" text-rendering="geometricPrecision" shape-rendering="geometricPrecision" transform="matrix(1,0,0,1,-141,-92)" stroke="rgb(255,204,0)">
      <rect x="516" y="338.25" clip-path="url(#clipPath2)" width="120" rx="4" ry="4" height="43" stroke="none"/>
    </g>
    <g text-rendering="geometricPrecision" stroke-miterlimit="1.45" shape-rendering="geometricPrecision" font-family="sans-serif" transform="matrix(1,0,0,1,-141,-92)" stroke-linecap="butt">
      <text x="555.7031" xml:space="preserve" y="356.9199" clip-path="url(#clipPath2)" stroke="none">Socket</text>
      <text x="553.8428" xml:space="preserve" y="370.8887" clip-path="url(#clipPath2)" stroke="none">Réseau</text>
      <rect x="516" y="338.25" clip-path="url(#clipPath2)" fill="none" width="120" rx="4" ry="4" height="43"/>
    </g>
    <g fill="rgb(255,102,0)" text-rendering="geometricPrecision" shape-rendering="geometricPrecision" transform="matrix(1,0,0,1,-141,-92)" stroke="rgb(255,102,0)">
      <rect x="205.4638" y="565.1935" clip-path="url(#clipPath2)" width="120" rx="4" ry="4" height="43" stroke="none"/>
    </g>
    <g text-rendering="geometricPrecision" stroke-miterlimit="1.45" shape-rendering="geometricPrecision" font-family="sans-serif" transform="matrix(1,0,0,1,-141,-92)" stroke-linecap="butt">
      <text x="241.3232" xml:space="preserve" y="590.8478" clip-path="url(#clipPath2)" stroke="none">Listener</text>
      <rect x="205.4638" y="565.1935" clip-path="url(#clipPath2)" fill="none" width="120" rx="4" ry="4" height="43"/>
    </g>
    <g fill="rgb(255,102,0)" text-rendering="geometricPrecision" shape-rendering="geometricPrecision" transform="matrix(1,0,0,1,-141,-92)" stroke="rgb(255,102,0)">
      <rect x="620.4638" y="565.1935" clip-path="url(#clipPath2)" width="120" rx="4" ry="4" height="43" stroke="none"/>
    </g>
    <g text-rendering="geometricPrecision" stroke-miterlimit="1.45" shape-rendering="geometricPrecision" font-family="sans-serif" transform="matrix(1,0,0,1,-141,-92)" stroke-linecap="butt">
      <text x="644.1006" xml:space="preserve" y="590.8478" clip-path="url(#clipPath2)" stroke="none">Interpréteur</text>
      <rect x="620.4638" y="565.1935" clip-path="url(#clipPath2)" fill="none" width="120" rx="4" ry="4" height="43"/>
    </g>
    <g fill="rgb(255,102,0)" text-rendering="geometricPrecision" shape-rendering="geometricPrecision" transform="matrix(1,0,0,1,-141,-92)" stroke="rgb(255,102,0)">
      <rect x="855.9638" y="565.1935" clip-path="url(#clipPath2)" width="120" rx="4" ry="4" height="43" stroke="none"/>
    </g>
    <g text-rendering="geometricPrecision" stroke-miterlimit="1.45" shape-rendering="geometricPrecision" font-family="sans-serif" transform="matrix(1,0,0,1,-141,-92)" stroke-linecap="butt">
      <text x="882.2754" xml:space="preserve" y="583.8634" clip-path="url(#clipPath2)" stroke="none">Controleur </text>
      <text x="900.4277" xml:space="preserve" y="597.8322" clip-path="url(#clipPath2)" stroke="none">Input</text>
      <rect x="855.9638" y="565.1935" clip-path="url(#clipPath2)" fill="none" width="120" rx="4" ry="4" height="43"/>
    </g>
    <g fill="rgb(255,102,0)" text-rendering="geometricPrecision" shape-rendering="geometricPrecision" transform="matrix(1,0,0,1,-141,-92)" stroke="rgb(255,102,0)">
      <rect x="522.9638" y="818.1935" clip-path="url(#clipPath2)" width="120" rx="4" ry="4" height="43" stroke="none"/>
    </g>
    <g text-rendering="geometricPrecision" stroke-miterlimit="1.45" shape-rendering="geometricPrecision" font-family="sans-serif" transform="matrix(1,0,0,1,-141,-92)" stroke-linecap="butt">
      <text x="549.4395" xml:space="preserve" y="836.8634" clip-path="url(#clipPath2)" stroke="none">Application</text>
      <text x="559.4854" xml:space="preserve" y="850.8322" clip-path="url(#clipPath2)" stroke="none">Serveur</text>
      <rect x="522.9638" y="818.1935" clip-path="url(#clipPath2)" fill="none" width="120" rx="4" ry="4" height="43"/>
    </g>
    <g fill="rgb(255,102,0)" text-rendering="geometricPrecision" shape-rendering="geometricPrecision" transform="matrix(1,0,0,1,-141,-92)" stroke="rgb(255,102,0)">
      <rect x="440.9638" width="64" height="29" y="502.1935" clip-path="url(#clipPath2)" stroke="none"/>
    </g>
    <g text-rendering="geometricPrecision" stroke-miterlimit="1.45" shape-rendering="geometricPrecision" font-family="sans-serif" transform="matrix(1,0,0,1,-141,-92)" stroke-linecap="butt">
      <text x="452.667" xml:space="preserve" y="520.8478" clip-path="url(#clipPath2)" stroke="none">Socket</text>
      <rect fill="none" x="440.9638" width="64" height="29" y="502.1935" clip-path="url(#clipPath2)"/>
    </g>
    <g fill="rgb(255,102,0)" text-rendering="geometricPrecision" shape-rendering="geometricPrecision" transform="matrix(1,0,0,1,-141,-92)" stroke="rgb(255,102,0)">
      <rect x="440.9638" width="64" height="29" y="537.1935" clip-path="url(#clipPath2)" stroke="none"/>
    </g>
    <g text-rendering="geometricPrecision" stroke-miterlimit="1.45" shape-rendering="geometricPrecision" font-family="sans-serif" transform="matrix(1,0,0,1,-141,-92)" stroke-linecap="butt">
      <text x="452.667" xml:space="preserve" y="555.8478" clip-path="url(#clipPath2)" stroke="none">Socket</text>
      <rect fill="none" x="440.9638" width="64" height="29" y="537.1935" clip-path="url(#clipPath2)"/>
    </g>
    <g fill="rgb(255,102,0)" text-rendering="geometricPrecision" shape-rendering="geometricPrecision" transform="matrix(1,0,0,1,-141,-92)" stroke="rgb(255,102,0)">
      <rect x="440.9638" width="64" height="29" y="572.1935" clip-path="url(#clipPath2)" stroke="none"/>
    </g>
    <g text-rendering="geometricPrecision" stroke-miterlimit="1.45" shape-rendering="geometricPrecision" font-family="sans-serif" transform="matrix(1,0,0,1,-141,-92)" stroke-linecap="butt">
      <text x="452.667" xml:space="preserve" y="590.8478" clip-path="url(#clipPath2)" stroke="none">Socket</text>
      <rect fill="none" x="440.9638" width="64" height="29" y="572.1935" clip-path="url(#clipPath2)"/>
    </g>
    <g fill="rgb(255,102,0)" text-rendering="geometricPrecision" shape-rendering="geometricPrecision" transform="matrix(1,0,0,1,-141,-92)" stroke="rgb(255,102,0)">
      <rect x="322.7763" y="687.1935" clip-path="url(#clipPath2)" width="120" rx="4" ry="4" height="43" stroke="none"/>
    </g>
    <g text-rendering="geometricPrecision" stroke-miterlimit="1.45" shape-rendering="geometricPrecision" font-family="sans-serif" transform="matrix(1,0,0,1,-141,-92)" stroke-linecap="butt">
      <text x="349.0879" xml:space="preserve" y="705.8634" clip-path="url(#clipPath2)" stroke="none">Controleur </text>
      <text x="351.915" xml:space="preserve" y="719.8322" clip-path="url(#clipPath2)" stroke="none">Utilisateur</text>
      <rect x="322.7763" y="687.1935" clip-path="url(#clipPath2)" fill="none" width="120" rx="4" ry="4" height="43"/>
    </g>
    <g fill="rgb(255,102,0)" text-rendering="geometricPrecision" shape-rendering="geometricPrecision" transform="matrix(1,0,0,1,-141,-92)" stroke="rgb(255,102,0)">
      <rect x="522.9638" y="687.1935" clip-path="url(#clipPath2)" width="120" rx="4" ry="4" height="43" stroke="none"/>
    </g>
    <g text-rendering="geometricPrecision" stroke-miterlimit="1.45" shape-rendering="geometricPrecision" font-family="sans-serif" transform="matrix(1,0,0,1,-141,-92)" stroke-linecap="butt">
      <text x="549.2754" xml:space="preserve" y="705.8634" clip-path="url(#clipPath2)" stroke="none">Controleur </text>
      <text x="568.4531" xml:space="preserve" y="719.8322" clip-path="url(#clipPath2)" stroke="none">Salle</text>
      <rect x="522.9638" y="687.1935" clip-path="url(#clipPath2)" fill="none" width="120" rx="4" ry="4" height="43"/>
    </g>
    <g fill="rgb(255,102,0)" text-rendering="geometricPrecision" shape-rendering="geometricPrecision" transform="matrix(1,0,0,1,-141,-92)" stroke="rgb(255,102,0)">
      <rect x="322.7763" y="818.1935" clip-path="url(#clipPath2)" width="120" rx="4" ry="4" height="43" stroke="none"/>
    </g>
    <g text-rendering="geometricPrecision" stroke-miterlimit="1.45" shape-rendering="geometricPrecision" font-family="sans-serif" transform="matrix(1,0,0,1,-141,-92)" stroke-linecap="butt">
      <text x="349.0879" xml:space="preserve" y="836.8634" clip-path="url(#clipPath2)" stroke="none">Controleur </text>
      <text x="369.4199" xml:space="preserve" y="850.8322" clip-path="url(#clipPath2)" stroke="none">BDD</text>
      <rect x="322.7763" y="818.1935" clip-path="url(#clipPath2)" fill="none" width="120" rx="4" ry="4" height="43"/>
    </g>
    <g text-rendering="geometricPrecision" shape-rendering="geometricPrecision" transform="matrix(1,0,0,1,21.9638,723.887)">
      <g clip-path="url(#clipPath3)">
        <svg xml:space="preserve" opacity="1" writing-mode="lr-tb" stop-color="rgb(0, 0, 0)" shape-rendering="auto" glyph-orientation-horizontal="0deg" color-profile="auto" lighting-color="rgb(255, 255, 255)" color="rgb(0, 0, 0)" font-weight="400" alignment-baseline="auto" font-style="normal" version="1.1" color-interpolation-filters="linearrgb" text-anchor="start" stroke-linecap="butt" color-interpolation="srgb" font-variant="normal" word-spacing="normal" fill-opacity="1" text-rendering="auto" clip-path="none" text-decoration="none" letter-spacing="normal" viewBox="0 0 40 48" glyph-orientation-vertical="auto" display="inline" font-size-adjust="none" overflow="hidden" fill="rgb(0, 0, 0)" font-stretch="normal" stroke-dasharray="none" stroke-miterlimit="4" stop-opacity="1" color-rendering="auto" font-size="12" pointer-events="visiblepainted" mask="none" direction="ltr" baseline-shift="baseline" enable-background="new 0 0 40 48" fill-rule="nonzero" image-rendering="auto" stroke-dashoffset="0" width="40px" marker-end="none" clip="auto" cursor="auto" stroke="none" filter="none" visibility="visible" kerning="auto" stroke-width="1" font-family="&quot;Arial&quot;,&quot;Helvetica&quot;,sans-serif" flood-opacity="1" clip-rule="nonzero" src="none" height="48px" unicode-bidi="normal" stroke-linejoin="miter" stroke-opacity="1" flood-color="rgb(0, 0, 0)" dominant-baseline="auto" marker-start="none" x="0px" marker-mid="none" y="0px">
<defs>
<clipPath clipPathUnits="userSpaceOnUse" id="clipPath1">
              <path d="M0 0 L870 0 L870 795 L0 795 L0 0 Z"/>
            </clipPath>
            <clipPath clipPathUnits="userSpaceOnUse" id="clipPath2">
              <path d="M141 92 L1011 92 L1011 887 L141 887 L141 92 Z"/>
            </clipPath>
            <clipPath clipPathUnits="userSpaceOnUse" id="clipPath3">
              <path d="M-21.9638 -723.887 L848.0361 -723.887 L848.0361 71.113 L-21.9638 71.113 L-21.9638 -723.887 Z"/>
            </clipPath>
          </defs>
<linearGradient gradientTransform="matrix(1 0 0 1 -370.2002 -614.5742)" x1="370.2002" x2="409.4502" gradientUnits="userSpaceOnUse" y1="655.0938" y2="655.0938" id="svg1.SVGID_1_">
	<stop offset="0" style="stop-color:#4D4D4D"/>
	<stop offset="0.0558" style="stop-color:#5F5F5F"/>
	<stop offset="0.2103" style="stop-color:#8D8D8D"/>
	<stop offset="0.3479" style="stop-color:#AEAEAE"/>
	<stop offset="0.4623" style="stop-color:#C2C2C2"/>
	<stop offset="0.5394" style="stop-color:#C9C9C9"/>
	<stop offset="0.6247" style="stop-color:#C5C5C5"/>
	<stop offset="0.7072" style="stop-color:#BABABA"/>
	<stop offset="0.7885" style="stop-color:#A6A6A6"/>
	<stop offset="0.869" style="stop-color:#8B8B8B"/>
	<stop offset="0.9484" style="stop-color:#686868"/>
	<stop offset="1" style="stop-color:#4D4D4D"/>
</linearGradient>
<path fill="url(#svg1.SVGID_1_)" d="M19.625,37.613C8.787,37.613,0,35.738,0,33.425v10c0,2.313,8.787,4.188,19.625,4.188  c10.839,0,19.625-1.875,19.625-4.188v-10C39.25,35.738,30.464,37.613,19.625,37.613z"/>
<linearGradient gradientTransform="matrix(1 0 0 1 -370.2002 -614.5742)" x1="370.2002" x2="409.4502" gradientUnits="userSpaceOnUse" y1="649.0938" y2="649.0938" id="svg1.SVGID_2_">
	<stop offset="0" style="stop-color:#B3B3B3"/>
	<stop offset="0.0171" style="stop-color:#B6B6B6"/>
	<stop offset="0.235" style="stop-color:#D7D7D7"/>
	<stop offset="0.4168" style="stop-color:#EBEBEB"/>
	<stop offset="0.5394" style="stop-color:#F2F2F2"/>
	<stop offset="0.6579" style="stop-color:#EEEEEE"/>
	<stop offset="0.7724" style="stop-color:#E3E3E3"/>
	<stop offset="0.8853" style="stop-color:#CFCFCF"/>
	<stop offset="0.9965" style="stop-color:#B4B4B4"/>
	<stop offset="1" style="stop-color:#B3B3B3"/>
</linearGradient>
<path fill="url(#svg1.SVGID_2_)" d="M19.625,37.613c10.839,0,19.625-1.875,19.625-4.188l-1.229-2c0,2.168-8.235,3.927-18.396,3.927  c-9.481,0-17.396-1.959-18.396-3.927l-1.229,2C0,35.738,8.787,37.613,19.625,37.613z"/>
<linearGradient gradientTransform="matrix(1 0 0 1 -370.2002 -614.5742)" x1="371.4297" x2="408.2217" gradientUnits="userSpaceOnUse" y1="646" y2="646" id="svg1.SVGID_3_">
	<stop offset="0" style="stop-color:#C9C9C9"/>
	<stop offset="1" style="stop-color:#808080"/>
</linearGradient>
<ellipse rx="18.396" fill="url(#svg1.SVGID_3_)" ry="3.926" cx="19.625" cy="31.425"/>
<linearGradient gradientTransform="matrix(1 0 0 1 -370.2002 -614.5742)" x1="370.2002" x2="409.4502" gradientUnits="userSpaceOnUse" y1="641.0938" y2="641.0938" id="svg1.SVGID_4_">
	<stop offset="0" style="stop-color:#4D4D4D"/>
	<stop offset="0.0558" style="stop-color:#5F5F5F"/>
	<stop offset="0.2103" style="stop-color:#8D8D8D"/>
	<stop offset="0.3479" style="stop-color:#AEAEAE"/>
	<stop offset="0.4623" style="stop-color:#C2C2C2"/>
	<stop offset="0.5394" style="stop-color:#C9C9C9"/>
	<stop offset="0.6247" style="stop-color:#C5C5C5"/>
	<stop offset="0.7072" style="stop-color:#BABABA"/>
	<stop offset="0.7885" style="stop-color:#A6A6A6"/>
	<stop offset="0.869" style="stop-color:#8B8B8B"/>
	<stop offset="0.9484" style="stop-color:#686868"/>
	<stop offset="1" style="stop-color:#4D4D4D"/>
</linearGradient>
<path fill="url(#svg1.SVGID_4_)" d="M19.625,23.613C8.787,23.613,0,21.738,0,19.425v10c0,2.313,8.787,4.188,19.625,4.188  c10.839,0,19.625-1.875,19.625-4.188v-10C39.25,21.738,30.464,23.613,19.625,23.613z"/>
<linearGradient gradientTransform="matrix(1 0 0 1 -370.2002 -614.5742)" x1="370.2002" x2="409.4502" gradientUnits="userSpaceOnUse" y1="635.0938" y2="635.0938" id="svg1.SVGID_5_">
	<stop offset="0" style="stop-color:#B3B3B3"/>
	<stop offset="0.0171" style="stop-color:#B6B6B6"/>
	<stop offset="0.235" style="stop-color:#D7D7D7"/>
	<stop offset="0.4168" style="stop-color:#EBEBEB"/>
	<stop offset="0.5394" style="stop-color:#F2F2F2"/>
	<stop offset="0.6579" style="stop-color:#EEEEEE"/>
	<stop offset="0.7724" style="stop-color:#E3E3E3"/>
	<stop offset="0.8853" style="stop-color:#CFCFCF"/>
	<stop offset="0.9965" style="stop-color:#B4B4B4"/>
	<stop offset="1" style="stop-color:#B3B3B3"/>
</linearGradient>
<path fill="url(#svg1.SVGID_5_)" d="M19.625,23.613c10.839,0,19.625-1.875,19.625-4.188l-1.229-2c0,2.168-8.235,3.926-18.396,3.926  c-9.481,0-17.396-1.959-18.396-3.926l-1.229,2C0,21.738,8.787,23.613,19.625,23.613z"/>
<linearGradient gradientTransform="matrix(1 0 0 1 -370.2002 -614.5742)" x1="371.4297" x2="408.2217" gradientUnits="userSpaceOnUse" y1="632" y2="632" id="svg1.SVGID_6_">
	<stop offset="0" style="stop-color:#C9C9C9"/>
	<stop offset="1" style="stop-color:#808080"/>
</linearGradient>
<ellipse rx="18.396" fill="url(#svg1.SVGID_6_)" ry="3.926" cx="19.625" cy="17.426"/>
<linearGradient gradientTransform="matrix(1 0 0 1 -370.2002 -614.5742)" x1="370.2002" x2="409.4502" gradientUnits="userSpaceOnUse" y1="627.5938" y2="627.5938" id="svg1.SVGID_7_">
	<stop offset="0" style="stop-color:#4D4D4D"/>
	<stop offset="0.0558" style="stop-color:#5F5F5F"/>
	<stop offset="0.2103" style="stop-color:#8D8D8D"/>
	<stop offset="0.3479" style="stop-color:#AEAEAE"/>
	<stop offset="0.4623" style="stop-color:#C2C2C2"/>
	<stop offset="0.5394" style="stop-color:#C9C9C9"/>
	<stop offset="0.6247" style="stop-color:#C5C5C5"/>
	<stop offset="0.7072" style="stop-color:#BABABA"/>
	<stop offset="0.7885" style="stop-color:#A6A6A6"/>
	<stop offset="0.869" style="stop-color:#8B8B8B"/>
	<stop offset="0.9484" style="stop-color:#686868"/>
	<stop offset="1" style="stop-color:#4D4D4D"/>
</linearGradient>
<path fill="url(#svg1.SVGID_7_)" d="M19.625,10.113C8.787,10.113,0,8.238,0,5.925v10c0,2.313,8.787,4.188,19.625,4.188  c10.839,0,19.625-1.875,19.625-4.188v-10C39.25,8.238,30.464,10.113,19.625,10.113z"/>
<linearGradient gradientTransform="matrix(1 0 0 1 -370.2002 -614.5742)" x1="370.2002" x2="409.4502" gradientUnits="userSpaceOnUse" y1="621.5938" y2="621.5938" id="svg1.SVGID_8_">
	<stop offset="0" style="stop-color:#B3B3B3"/>
	<stop offset="0.0171" style="stop-color:#B6B6B6"/>
	<stop offset="0.235" style="stop-color:#D7D7D7"/>
	<stop offset="0.4168" style="stop-color:#EBEBEB"/>
	<stop offset="0.5394" style="stop-color:#F2F2F2"/>
	<stop offset="0.6579" style="stop-color:#EEEEEE"/>
	<stop offset="0.7724" style="stop-color:#E3E3E3"/>
	<stop offset="0.8853" style="stop-color:#CFCFCF"/>
	<stop offset="0.9965" style="stop-color:#B4B4B4"/>
	<stop offset="1" style="stop-color:#B3B3B3"/>
</linearGradient>
<path fill="url(#svg1.SVGID_8_)" d="M19.625,10.113c10.839,0,19.625-1.875,19.625-4.188l-1.229-2c0,2.168-8.235,3.926-18.396,3.926  c-9.481,0-17.396-1.959-18.396-3.926L0,5.925C0,8.238,8.787,10.113,19.625,10.113z"/>
<linearGradient gradientTransform="matrix(1 0 0 1 -370.2002 -614.5742)" x1="371.4297" x2="408.2217" gradientUnits="userSpaceOnUse" y1="618.5" y2="618.5" id="svg1.SVGID_9_">
	<stop offset="0" style="stop-color:#C9C9C9"/>
	<stop offset="1" style="stop-color:#808080"/>
</linearGradient>
<ellipse rx="18.396" fill="url(#svg1.SVGID_9_)" ry="3.926" cx="19.625" cy="3.926"/>
<path fill="#FFFFFF" d="M31.291,46.792c0,0-4.313,0.578-7.249,0.694  C20.917,47.613,15,47.613,15,47.613l-2.443-10.279l-0.119-2.283l-1.231-1.842L9.789,23.024l-0.082-0.119L9.3,20.715l-1.45-1.44  L5.329,8.793c0,0,5.296,0.882,7.234,1.07s8.375,0.25,8.375,0.25l3,9.875l-0.25,1.313l1.063,2.168l2.312,9.644l-0.375,1.875  l1.627,2.193L31.291,46.792z" enable-background="new    " opacity="0.24"/>
</svg>
      </g>
    </g>
    <g fill="silver" text-rendering="geometricPrecision" shape-rendering="geometricPrecision" transform="matrix(1,0,0,1,-141,-92)" stroke="silver">
      <rect x="205.4638" width="770.5" height="29" y="443.1935" clip-path="url(#clipPath2)" stroke="none"/>
    </g>
    <g text-rendering="geometricPrecision" stroke-miterlimit="1.45" shape-rendering="geometricPrecision" font-family="sans-serif" transform="matrix(1,0,0,1,-141,-92)" stroke-linecap="butt">
      <text x="568.5566" xml:space="preserve" y="461.8478" clip-path="url(#clipPath2)" stroke="none">Réseau</text>
      <rect fill="none" x="205.4638" width="770.5" height="29" y="443.1935" clip-path="url(#clipPath2)"/>
      <path fill="none" d="M623.8418 128.75 L696 128.75 L696 203.4933" clip-path="url(#clipPath2)"/>
      <path d="M696 211.4933 L701 199.4933 L696 202.4933 L691 199.4933 Z" clip-path="url(#clipPath2)" stroke="none"/>
      <path fill="none" d="M623.8564 128.75 L936 128.75 L936 203.4933" clip-path="url(#clipPath2)"/>
      <path d="M936 211.4933 L941 199.4933 L936 202.4933 L931 199.4933 Z" clip-path="url(#clipPath2)" stroke="none"/>
      <rect x="679.6016" y="119.7656" clip-path="url(#clipPath2)" fill="white" width="36.2734" height="17.9688" stroke="none"/>
      <text x="681.6016" xml:space="preserve" y="132.9043" clip-path="url(#clipPath2)" stroke="none">lance</text>
      <path fill="none" d="M732.44 254.4699 L732.44 306.3 L912.44 306.3 L912.44 262.5046" clip-path="url(#clipPath2)" stroke="rgb(51,102,255)"/>
      <path fill="rgb(51,102,255)" d="M912.44 254.5046 L907.44 266.5046 L912.44 263.5046 L917.44 266.5046 Z" clip-path="url(#clipPath2)" stroke="none"/>
      <rect x="795.6607" y="297.3156" clip-path="url(#clipPath2)" fill="white" width="53.5586" height="17.9688" stroke="none"/>
      <text fill="rgb(51,102,255)" x="797.6607" xml:space="preserve" y="310.4543" clip-path="url(#clipPath2)" stroke="none">sérialise</text>
      <path fill="none" d="M503.8418 128.75 L456 128.75 L456 203.4933" clip-path="url(#clipPath2)"/>
      <path d="M456 211.4933 L461 199.4933 L456 202.4933 L451 199.4933 Z" clip-path="url(#clipPath2)" stroke="none"/>
      <path fill="none" d="M895.84 211.5069 L895.84 176.55 L483.84 176.55 L483.84 203.4931" clip-path="url(#clipPath2)" stroke="red"/>
      <path fill="red" d="M483.84 211.4931 L488.84 199.4931 L483.84 202.4931 L478.84 199.4931 Z" clip-path="url(#clipPath2)" stroke="none"/>
      <rect x="728.8293" y="167.5656" clip-path="url(#clipPath2)" fill="white" width="48.0215" height="17.9688" stroke="none"/>
      <text fill="red" x="730.8293" xml:space="preserve" y="180.7043" clip-path="url(#clipPath2)" stroke="none">appelle</text>
      <path fill="none" d="M503.7979 128.75 L216 128.75 L216 200.0021" clip-path="url(#clipPath2)"/>
      <path d="M216 208.0021 L221 196.0021 L216 199.0021 L211 196.0021 Z" clip-path="url(#clipPath2)" stroke="none"/>
      <rect x="434.1396" y="119.7656" clip-path="url(#clipPath2)" fill="white" width="36.2734" height="17.9688" stroke="none"/>
      <text x="436.1396" xml:space="preserve" y="132.9043" clip-path="url(#clipPath2)" stroke="none">lance</text>
      <path fill="none" d="M427.84 210.5 L427.84 179.75 L244.64 179.75 L244.64 200.0318" clip-path="url(#clipPath2)" stroke="red"/>
      <path fill="red" d="M244.64 208.0318 L249.64 196.0318 L244.64 199.0318 L239.64 196.0318 Z" clip-path="url(#clipPath2)" stroke="none"/>
      <rect x="306.9265" y="170.7656" clip-path="url(#clipPath2)" fill="white" width="58.627" height="17.9688" stroke="none"/>
      <text fill="red" x="308.9265" xml:space="preserve" y="183.9043" clip-path="url(#clipPath2)" stroke="none">transmet</text>
      <path fill="none" d="M216 251.0123 L216 304.3 L676 304.3 L676 262.4821" clip-path="url(#clipPath2)" stroke="rgb(51,102,255)"/>
      <path fill="rgb(51,102,255)" d="M676 254.4821 L671 266.4821 L676 263.4821 L681 266.4821 Z" clip-path="url(#clipPath2)" stroke="none"/>
      <rect x="421.9893" y="295.3156" clip-path="url(#clipPath2)" fill="white" width="48.0215" height="17.9688" stroke="none"/>
      <text fill="rgb(51,102,255)" x="423.9893" xml:space="preserve" y="308.4543" clip-path="url(#clipPath2)" stroke="none">appelle</text>
      <path fill="none" d="M965.44 254.5056 L965.44 368.05 L644.0207 368.05" clip-path="url(#clipPath2)" stroke="rgb(51,102,255)"/>
      <path fill="rgb(51,102,255)" d="M636.0207 368.05 L648.0207 373.05 L645.0207 368.05 L648.0207 363.05 Z" clip-path="url(#clipPath2)" stroke="none"/>
      <rect x="804.1265" y="359.0656" clip-path="url(#clipPath2)" fill="white" width="58.627" height="17.9688" stroke="none"/>
      <text fill="rgb(51,102,255)" x="806.1265" xml:space="preserve" y="372.2043" clip-path="url(#clipPath2)" stroke="none">transmet</text>
      <path fill="none" d="M636.0004 346.05 L936 346.05 L936 262.5005" clip-path="url(#clipPath2)" stroke="red"/>
      <path fill="red" d="M936 254.5005 L931 266.5005 L936 263.5005 L941 266.5005 Z" clip-path="url(#clipPath2)" stroke="none"/>
      <rect x="771.3604" y="337.0656" clip-path="url(#clipPath2)" fill="white" width="68.5586" height="17.9688" stroke="none"/>
      <text fill="red" x="773.3604" xml:space="preserve" y="350.2043" clip-path="url(#clipPath2)" stroke="none">désérialise</text>
      <path fill="none" d="M713.6777 565.1874 L713.6777 516.6935 L915.9639 516.6935 L915.9639 557.1945" clip-path="url(#clipPath2)" stroke="rgb(51,102,255)"/>
      <path fill="rgb(51,102,255)" d="M915.9639 565.1945 L920.9639 553.1945 L915.9639 556.1945 L910.9639 553.1945 Z" clip-path="url(#clipPath2)" stroke="none"/>
      <rect x="790.81" y="507.7091" clip-path="url(#clipPath2)" fill="white" width="48.0215" height="17.9688" stroke="none"/>
      <text fill="rgb(51,102,255)" x="792.81" xml:space="preserve" y="520.8478" clip-path="url(#clipPath2)" stroke="none">appelle</text>
      <path fill="none" d="M522.9946 839.6935 L483.6777 839.6935 L483.6777 675.1935 L265.4638 675.1935 L265.4638 616.1959" clip-path="url(#clipPath2)"/>
      <path d="M265.4638 608.1959 L260.4638 620.1959 L265.4638 617.1959 L270.4638 620.1959 Z" clip-path="url(#clipPath2)" stroke="none"/>
      <path fill="none" d="M643.0031 839.6935 L915.9639 839.6935 L915.9639 616.2195" clip-path="url(#clipPath2)"/>
      <path d="M915.9639 608.2195 L910.9639 620.2195 L915.9639 617.2195 L920.9639 620.2195 Z" clip-path="url(#clipPath2)" stroke="none"/>
      <path fill="none" d="M642.9968 839.6935 L680.4639 839.6935 L680.4639 616.2195" clip-path="url(#clipPath2)"/>
      <path d="M680.4639 608.2195 L675.4639 620.2195 L680.4639 617.2195 L685.4639 620.2195 Z" clip-path="url(#clipPath2)" stroke="none"/>
      <rect x="662.3271" y="830.7091" clip-path="url(#clipPath2)" fill="white" width="36.2734" height="17.9688" stroke="none"/>
      <text x="664.3271" xml:space="preserve" y="843.8478" clip-path="url(#clipPath2)" stroke="none">lance</text>
      <path fill="none" d="M325.4705 586.6935 L378.6777 586.6935 L378.6777 516.6935 L432.9638 516.6935" clip-path="url(#clipPath2)" stroke="rgb(51,153,102)"/>
      <path fill="rgb(51,153,102)" d="M440.9638 516.6935 L428.9638 511.6935 L431.9638 516.6935 L428.9638 521.6935 Z" clip-path="url(#clipPath2)" stroke="none"/>
      <path fill="none" d="M504.9638 516.6935 L654.6777 516.6935 L654.6777 557.1864" clip-path="url(#clipPath2)" stroke="rgb(51,102,255)"/>
      <path fill="rgb(51,102,255)" d="M654.6777 565.1864 L659.6777 553.1864 L654.6777 556.1864 L649.6777 553.1864 Z" clip-path="url(#clipPath2)" stroke="none"/>
      <rect x="546.5415" y="507.7091" clip-path="url(#clipPath2)" fill="white" width="68.5586" height="17.9688" stroke="none"/>
      <text fill="rgb(51,102,255)" x="548.5414" xml:space="preserve" y="520.8478" clip-path="url(#clipPath2)" stroke="none">désérialise</text>
      <path fill="none" d="M325.4428 586.6935 L379.6777 586.6935 L379.6777 551.6935 L432.9638 551.6935" clip-path="url(#clipPath2)" stroke="rgb(51,153,102)"/>
      <path fill="rgb(51,153,102)" d="M440.9638 551.6935 L428.9638 546.6935 L431.9638 551.6935 L428.9638 556.6935 Z" clip-path="url(#clipPath2)" stroke="none"/>
      <path fill="none" d="M325.4696 586.6935 L432.9638 586.6935" clip-path="url(#clipPath2)" stroke="rgb(51,153,102)"/>
      <path fill="rgb(51,153,102)" d="M440.9638 586.6935 L428.9638 581.6935 L431.9638 586.6935 L428.9638 591.6935 Z" clip-path="url(#clipPath2)" stroke="none"/>
      <rect x="354.6738" y="577.7091" clip-path="url(#clipPath2)" fill="white" width="57.0801" height="17.9688" stroke="none"/>
      <text fill="rgb(51,153,102)" x="356.6738" xml:space="preserve" y="590.8478" clip-path="url(#clipPath2)" stroke="none">construit</text>
      <path fill="none" d="M620.4581 586.6935 L512.9639 586.6935" clip-path="url(#clipPath2)" stroke="red"/>
      <path fill="red" d="M504.9639 586.6935 L516.9639 591.6935 L513.9639 586.6935 L516.9639 581.6935 Z" clip-path="url(#clipPath2)" stroke="none"/>
      <rect x="533.4004" y="577.7091" clip-path="url(#clipPath2)" fill="white" width="58.627" height="17.9688" stroke="none"/>
      <text fill="red" x="535.4004" xml:space="preserve" y="590.8478" clip-path="url(#clipPath2)" stroke="none">transmet</text>
      <path fill="none" d="M522.9946 839.6935 L483.6777 839.6935 L483.6777 708.6935 L450.7358 708.6935" clip-path="url(#clipPath2)"/>
      <path d="M442.7358 708.6935 L454.7358 713.6935 L451.7358 708.6935 L454.7358 703.6935 Z" clip-path="url(#clipPath2)" stroke="none"/>
      <path fill="none" d="M876.6777 608.192 L876.6777 662.1935 L430.6777 662.1935 L430.6777 679.1456" clip-path="url(#clipPath2)" stroke="rgb(51,102,255)"/>
      <path fill="rgb(51,102,255)" d="M430.6777 687.1456 L435.6777 675.1456 L430.6777 678.1456 L425.6777 675.1456 Z" clip-path="url(#clipPath2)" stroke="none"/>
      <path fill="none" d="M382.7763 687.1713 L382.7763 641.1935 L650.6777 641.1935 L650.6777 616.2081" clip-path="url(#clipPath2)" stroke="red"/>
      <path fill="red" d="M650.6777 608.2081 L645.6777 620.2081 L650.6777 617.2081 L655.6777 620.2081 Z" clip-path="url(#clipPath2)" stroke="none"/>
      <path fill="none" d="M582.9639 818.2031 L582.9639 738.1857" clip-path="url(#clipPath2)"/>
      <path d="M582.9639 730.1857 L577.9639 742.1857 L582.9639 739.1857 L587.9639 742.1857 Z" clip-path="url(#clipPath2)" stroke="none"/>
      <rect x="564.8271" y="765.2091" clip-path="url(#clipPath2)" fill="white" width="36.2734" height="17.9688" stroke="none"/>
      <text x="566.8271" xml:space="preserve" y="778.3478" clip-path="url(#clipPath2)" stroke="none">lance</text>
      <path fill="none" d="M876.6777 608.2257 L876.6777 662.1935 L582.9639 662.1935 L582.9639 679.2145" clip-path="url(#clipPath2)" stroke="rgb(51,102,255)"/>
      <path fill="rgb(51,102,255)" d="M582.9639 687.2145 L587.9639 675.2145 L582.9639 678.2145 L577.9639 675.2145 Z" clip-path="url(#clipPath2)" stroke="none"/>
      <rect x="763.3642" y="653.2091" clip-path="url(#clipPath2)" fill="white" width="58.627" height="17.9688" stroke="none"/>
      <text fill="rgb(51,102,255)" x="765.3642" xml:space="preserve" y="666.3478" clip-path="url(#clipPath2)" stroke="none">transmet</text>
      <path fill="none" d="M609.6777 687.1906 L609.6777 640.1935 L650.6777 640.1935 L650.6777 616.174" clip-path="url(#clipPath2)" stroke="red"/>
      <path fill="red" d="M650.6777 608.174 L645.6777 620.174 L650.6777 617.174 L655.6777 620.174 Z" clip-path="url(#clipPath2)" stroke="none"/>
      <rect x="582.8984" y="631.2091" clip-path="url(#clipPath2)" fill="white" width="53.5586" height="17.9688" stroke="none"/>
      <text fill="red" x="584.8984" xml:space="preserve" y="644.3478" clip-path="url(#clipPath2)" stroke="none">sérialise</text>
      <path fill="none" d="M522.9955 839.6935 L450.7872 839.6935" clip-path="url(#clipPath2)"/>
      <path d="M442.7872 839.6935 L454.7872 844.6935 L451.7872 839.6935 L454.7872 834.6935 Z" clip-path="url(#clipPath2)" stroke="none"/>
      <rect x="464.7334" y="830.7091" clip-path="url(#clipPath2)" fill="white" width="36.2734" height="17.9688" stroke="none"/>
      <text x="466.7334" xml:space="preserve" y="843.8478" clip-path="url(#clipPath2)" stroke="none">lance</text>
      <path fill="none" d="M343.6777 730.2001 L343.6777 810.182" clip-path="url(#clipPath2)" stroke="rgb(51,102,255)"/>
      <path fill="rgb(51,102,255)" d="M343.6777 818.182 L348.6777 806.182 L343.6777 809.182 L338.6777 806.182 Z" clip-path="url(#clipPath2)" stroke="none"/>
      <rect x="322.0634" y="750.2091" clip-path="url(#clipPath2)" fill="white" width="43.2285" height="17.9688" stroke="none"/>
      <text fill="rgb(51,102,255)" x="324.0634" xml:space="preserve" y="763.3478" clip-path="url(#clipPath2)" stroke="none">stocke</text>
      <path fill="none" d="M621.6777 730.1925 L621.6777 800.1935 L419.6777 800.1935 L419.6777 810.1466" clip-path="url(#clipPath2)" stroke="rgb(51,102,255)"/>
      <path fill="rgb(51,102,255)" d="M419.6777 818.1466 L424.6777 806.1466 L419.6777 809.1466 L414.6777 806.1466 Z" clip-path="url(#clipPath2)" stroke="none"/>
      <rect x="499.0634" y="791.2091" clip-path="url(#clipPath2)" fill="white" width="43.2285" height="17.9688" stroke="none"/>
      <text fill="rgb(51,102,255)" x="501.0634" xml:space="preserve" y="804.3478" clip-path="url(#clipPath2)" stroke="none">stocke</text>
      <path fill="none" d="M382.7763 818.1693 L382.7763 738.2091" clip-path="url(#clipPath2)" stroke="red"/>
      <path fill="red" d="M382.7763 730.2091 L377.7763 742.2091 L382.7763 739.2091 L387.7763 742.2091 Z" clip-path="url(#clipPath2)" stroke="none"/>
      <path fill="none" d="M382.7763 818.1786 L382.7763 769.1935 L552.6777 769.1935 L552.6777 738.1466" clip-path="url(#clipPath2)" stroke="red"/>
      <path fill="red" d="M552.6777 730.1466 L547.6777 742.1466 L552.6777 739.1466 L557.6777 742.1466 Z" clip-path="url(#clipPath2)" stroke="none"/>
      <rect x="353.4629" y="777.7169" clip-path="url(#clipPath2)" fill="white" width="58.627" height="17.9688" stroke="none"/>
      <text fill="red" x="355.4629" xml:space="preserve" y="790.8556" clip-path="url(#clipPath2)" stroke="none">transmet</text>
      <path fill="none" d="M322.8081 839.6935 L210.2045 839.6935" clip-path="url(#clipPath2)"/>
      <path d="M202.2045 839.6935 L214.2045 844.6935 L211.2045 839.6935 L214.2045 834.6935 Z" clip-path="url(#clipPath2)" stroke="none"/>
      <rect x="236.9902" y="830.7091" clip-path="url(#clipPath2)" fill="white" width="51.0098" height="17.9688" stroke="none"/>
      <text x="238.9902" xml:space="preserve" y="843.8478" clip-path="url(#clipPath2)" stroke="none">requête</text>
      <path fill="none" d="M494.2138 502.171 L494.2138 480.1766" clip-path="url(#clipPath2)" stroke="red"/>
      <path fill="red" d="M494.2138 472.1766 L489.2138 484.1766 L494.2138 481.1766 L499.2138 484.1766 Z" clip-path="url(#clipPath2)" stroke="none"/>
      <path fill="none" d="M540.6627 389.2618 L540.6627 435.1882" clip-path="url(#clipPath2)" stroke="rgb(51,153,102)"/>
      <path fill="rgb(51,153,102)" d="M540.6627 381.2618 L535.6627 393.2618 L540.6627 390.2618 L545.6627 393.2618 Z" clip-path="url(#clipPath2)" stroke="none"/>
      <path fill="rgb(51,153,102)" d="M540.6627 443.1882 L545.6627 431.1882 L540.6627 434.1882 L535.6627 431.1882 Z" clip-path="url(#clipPath2)" stroke="none"/>
      <rect x="507.7047" y="403.2374" clip-path="url(#clipPath2)" fill="white" width="65.916" height="17.9688" stroke="none"/>
      <text fill="rgb(51,153,102)" x="509.7047" xml:space="preserve" y="416.376" clip-path="url(#clipPath2)" stroke="none">connexion</text>
      <path fill="none" d="M607.9639 381.2447 L607.9639 435.1635" clip-path="url(#clipPath2)" stroke="rgb(51,102,255)"/>
      <path fill="rgb(51,102,255)" d="M607.9639 443.1635 L612.9639 431.1635 L607.9639 434.1635 L602.9639 431.1635 Z" clip-path="url(#clipPath2)" stroke="none"/>
      <path fill="none" d="M265.4638 480.2218 L265.4638 557.2021" clip-path="url(#clipPath2)" stroke="rgb(51,153,102)"/>
      <path fill="rgb(51,153,102)" d="M265.4638 472.2218 L260.4638 484.2218 L265.4638 481.2218 L270.4638 484.2218 Z" clip-path="url(#clipPath2)" stroke="none"/>
      <path fill="rgb(51,153,102)" d="M265.4638 565.2021 L270.4638 553.2021 L265.4638 556.2021 L260.4638 553.2021 Z" clip-path="url(#clipPath2)" stroke="none"/>
      <rect x="232.5058" y="509.7091" clip-path="url(#clipPath2)" fill="white" width="65.916" height="17.9688" stroke="none"/>
      <text fill="rgb(51,153,102)" x="234.5058" xml:space="preserve" y="522.8478" clip-path="url(#clipPath2)" stroke="none">connexion</text>
      <path fill="none" d="M455.6822 472.2218 L455.6822 494.1889" clip-path="url(#clipPath2)" stroke="rgb(51,102,255)"/>
      <path fill="rgb(51,102,255)" d="M455.6822 502.1889 L460.6822 490.1889 L455.6822 493.1889 L450.6822 490.1889 Z" clip-path="url(#clipPath2)" stroke="none"/>
      <path fill="none" d="M576 443.2216 L576 389.2292" clip-path="url(#clipPath2)" stroke="red"/>
      <path fill="red" d="M576 381.2292 L571 393.2292 L576 390.2292 L581 393.2292 Z" clip-path="url(#clipPath2)" stroke="none"/>
    </g>
  </g>
</svg>
